<svg width="18" height="203" viewBox="0 0 18 203" fill="none" xmlns="http://www.w3.org/2000/svg">
<g clip-path="url(#clip0_218_9)">
<rect width="18" height="203" fill="#ED1B24"/>
<path d="M-0.5 185.5L35.5045 192.474L35.5786 202.057L-0.425911 195.082L-0.5 185.5Z" fill="white"/>
<path d="M-0.5 157L35.5045 163.974L35.5786 173.557L-0.425911 166.582L-0.5 157Z" fill="white"/>
<path d="M-0.253418 128L35.7511 134.974L35.8252 144.557L-0.179329 137.582L-0.253418 128Z" fill="white"/>
<path d="M-0.253418 99L35.7511 105.974L35.8252 115.557L-0.179329 108.582L-0.253418 99Z" fill="white"/>
<path d="M-0.253418 70L35.7511 76.9745L35.8252 86.5565L-0.179329 79.5822L-0.253418 70Z" fill="white"/>
<path d="M-0.253418 41L35.7511 47.9745L35.8252 57.5565L-0.179329 50.5822L-0.253418 41Z" fill="white"/>
<path d="M-0.253418 12L35.7511 18.9745L35.8252 28.5565L-0.179329 21.5822L-0.253418 12Z" fill="white"/>
</g>
<defs>
<clipPath id="clip0_218_9">
<rect width="18" height="203" fill="white"/>
</clipPath>
</defs>
</svg>
